<svg width="720" height="516" viewBox="0 0 720 516" fill="none" xmlns="http://www.w3.org/2000/svg">
<path d="M121.461 361.105C121.461 361.105 40.2169 356.251 49.783 412.536C49.783 412.536 47.8187 422.476 57.0117 427C57.0117 427 57.1492 422.826 65.3403 424.243C68.2536 424.723 71.2142 424.86 74.1601 424.651C78.1468 424.382 81.9378 422.842 84.9637 420.263V420.263C84.9637 420.263 107.809 410.924 116.687 374.035C116.687 374.035 123.248 365.978 122.993 363.92L109.243 369.745C109.243 369.745 113.937 379.452 110.244 387.645C110.244 387.645 109.793 370.172 107.16 370.502C106.63 370.599 100.03 373.9 100.03 373.9C100.03 373.9 108.103 390.927 101.994 403.314C101.994 403.314 104.312 382.326 97.496 375.123L87.8513 380.695C87.8513 380.695 97.28 398.285 90.8763 412.652C90.8763 412.652 92.5263 390.635 85.828 382.054L77.0673 388.791C77.0673 388.791 85.9263 406.129 80.5244 418.05C80.5244 418.05 79.8173 392.402 75.1815 390.48C75.1815 390.48 67.5207 397.139 66.3618 399.877C66.3618 399.877 72.4119 412.477 68.66 419.117C68.66 419.117 66.3618 402.032 64.4564 401.954C64.4564 401.954 56.8349 413.273 56.0492 421.02C56.0492 421.02 56.3831 409.488 62.61 400.867C58.2157 401.699 54.1614 403.776 50.942 406.847C50.942 406.847 52.1205 398.848 64.4957 398.149C64.4957 398.149 70.8011 389.568 72.4904 389.043C72.4904 389.043 60.1742 388.034 52.7295 391.296C52.7295 391.296 59.2903 383.762 74.7297 387.18L83.3727 380.209C83.3727 380.209 67.1868 378.035 60.3117 380.442C60.3117 380.442 68.1689 373.764 85.7102 378.637L95.0996 373.084C95.0996 373.084 81.3494 370.133 73.0601 371.143C73.0601 371.143 81.7423 366.522 97.8496 371.531L104.587 368.541C104.587 368.541 94.471 366.599 91.5049 366.269C88.5388 365.939 88.3817 365.143 88.3817 365.143C94.7877 364.096 101.362 364.822 107.376 367.24C107.376 367.24 121.716 361.979 121.461 361.105Z" fill="#D6D5FF"/>
<path d="M344.592 140.684V116.753C344.592 115.653 344.888 114.574 345.449 113.628C346.011 112.682 346.817 111.905 347.783 111.38C348.749 110.854 349.839 110.598 350.938 110.64C352.037 110.681 353.105 111.018 354.028 111.616L385.493 131.966C390.319 135.084 388.572 142.527 382.868 143.175L351.399 146.76C350.543 146.858 349.676 146.773 348.855 146.512C348.035 146.252 347.278 145.82 346.635 145.247C345.993 144.673 345.478 143.97 345.126 143.184C344.774 142.397 344.592 141.546 344.592 140.684Z" fill="#E9F0FF"/>
<path d="M444.992 130.072L400.342 116.697C398.29 116.084 396.441 114.929 394.99 113.354C393.538 111.779 392.539 109.842 392.096 107.746C391.653 105.651 391.784 103.474 392.474 101.447C393.164 99.419 394.389 97.6153 396.018 96.225L451.587 48.8855C460.098 41.6334 473.01 49.0498 471.047 60.0555L460.145 120.77C459.847 122.423 459.207 123.994 458.26 125.381C457.313 126.768 456.085 127.939 454.653 128.817C453.222 129.696 451.622 130.262 449.957 130.478C448.292 130.694 446.6 130.556 444.992 130.072Z" fill="#E9F0FF"/>
<path d="M374.232 380.919L388.84 349.26C389.51 347.805 390.561 346.558 391.881 345.65C393.201 344.742 394.741 344.207 396.339 344.101C397.938 343.995 399.535 344.321 400.963 345.046C402.392 345.772 403.598 346.869 404.455 348.222L433.671 394.342C438.147 401.413 431.297 410.196 423.353 407.571L379.534 393.11C378.341 392.717 377.246 392.077 376.319 391.231C375.391 390.385 374.653 389.353 374.153 388.202C373.652 387.051 373.4 385.807 373.414 384.552C373.428 383.297 373.706 382.059 374.232 380.919Z" fill="#E9F0FF"/>
<path d="M594.33 146.543L599.545 161.748C599.783 162.447 599.831 163.196 599.679 163.919C599.528 164.642 599.186 165.31 598.689 165.855C598.187 166.399 597.552 166.799 596.847 167.012C596.138 167.225 595.389 167.245 594.672 167.067L570.247 161.013C569.426 160.81 568.686 160.358 568.128 159.718C567.575 159.078 567.233 158.282 567.147 157.439C567.06 156.596 567.242 155.748 567.657 155.011C568.072 154.273 568.708 153.683 569.473 153.32L588.682 144.187C589.201 143.938 589.772 143.801 590.347 143.786C590.927 143.772 591.502 143.879 592.034 144.101C592.566 144.324 593.046 144.657 593.443 145.078C593.837 145.498 594.14 145.998 594.33 146.543Z" fill="#E9F0FF"/>
<path d="M162.233 252.099L172.75 282.772C173.233 284.181 173.327 285.694 173.023 287.152C172.718 288.61 172.027 289.959 171.02 291.057C170.014 292.156 168.73 292.962 167.304 293.392C165.877 293.822 164.362 293.86 162.916 293.501L113.644 281.25C106.093 279.377 105.055 269.068 112.082 265.729L150.838 247.303C151.892 246.802 153.04 246.529 154.207 246.502C155.374 246.476 156.533 246.697 157.609 247.149C158.685 247.602 159.653 248.277 160.45 249.13C161.246 249.983 161.854 250.995 162.233 252.099Z" fill="#5B58FF" fill-opacity="0.25"/>
<path d="M585.026 80.9078L602.285 97.0206C603.072 97.764 603.643 98.7041 603.941 99.7437C604.244 100.784 604.257 101.884 603.989 102.932C603.716 103.98 603.171 104.936 602.406 105.701C601.64 106.466 600.685 107.012 599.638 107.283L563.776 116.286C558.279 117.665 554.085 111.395 557.458 106.841L576.053 81.7295C576.559 81.0478 577.207 80.4807 577.947 80.065C578.691 79.6493 579.508 79.3945 580.356 79.317C581.203 79.2395 582.055 79.3411 582.859 79.6152C583.664 79.8893 584.403 80.3297 585.026 80.9078Z" fill="#E9F0FF"/>
<path d="M245.165 153.17L268.058 174.533C269.11 175.515 269.878 176.762 270.28 178.143C270.683 179.525 270.705 180.989 270.346 182.382C269.987 183.776 269.258 185.046 268.238 186.06C267.217 187.075 265.942 187.795 264.547 188.146L216.978 200.081C209.692 201.911 204.13 193.595 208.602 187.54L233.251 154.242C233.923 153.334 234.78 152.578 235.765 152.025C236.751 151.472 237.842 151.134 238.967 151.032C240.093 150.931 241.227 151.069 242.295 151.438C243.363 151.806 244.341 152.396 245.165 153.17Z" fill="#8994FE" fill-opacity="0.1"/>
<path d="M584.873 204.253L556.444 222.653C554.663 223.807 552.621 224.505 550.507 224.685C548.392 224.867 546.26 224.525 544.31 223.692C542.355 222.859 540.634 221.558 539.302 219.906C537.97 218.252 537.062 216.298 536.66 214.212L528.638 172.412C526.476 161.221 538.783 152.9 548.375 159.054L584.83 182.445C586.655 183.617 588.16 185.228 589.202 187.131C590.244 189.033 590.793 191.168 590.798 193.337C590.802 195.507 590.261 197.643 589.228 199.55C588.19 201.457 586.694 203.074 584.873 204.253Z" fill="#5B58FF" fill-opacity="0.25"/>
<path d="M479.152 372.763C505.444 372.763 526.759 351.449 526.759 325.156C526.759 298.863 505.444 277.548 479.152 277.548C452.858 277.548 431.543 298.863 431.543 325.156C431.543 351.449 452.858 372.763 479.152 372.763Z" fill="#E9F0FF"/>
<path d="M364.334 86.2659C371.468 86.2659 377.251 80.4827 377.251 73.3488C377.251 66.2149 371.468 60.4318 364.334 60.4318C357.2 60.4318 351.417 66.2149 351.417 73.3488C351.417 80.4827 357.2 86.2659 364.334 86.2659Z" fill="#E9F0FF"/>
<path d="M536.344 319.815C553.347 319.815 567.129 306.031 567.129 289.029C567.129 272.027 553.347 258.243 536.344 258.243C519.34 258.243 505.558 272.027 505.558 289.029C505.558 306.031 519.34 319.815 536.344 319.815Z" fill="#E9F0FF"/>
<g clip-path="url(#clip0)">
<path d="M323.441 153.778C344.801 116.741 398.199 116.741 419.559 153.778L543.482 368.665C564.842 405.703 538.143 452 495.423 452H247.577C204.857 452 178.158 405.703 199.518 368.665L323.441 153.778Z" fill="url(#paint0_linear)"/>
<path d="M159.05 89.1576C164.583 79.6141 178.417 79.6141 183.95 89.1576L216.053 144.527C221.586 154.071 214.669 166 203.603 166H139.397C128.331 166 121.414 154.071 126.947 144.527L159.05 89.1576Z" fill="#E9F0FF"/>
<path opacity="0.3" d="M313.833 114.945C338.574 71.0183 400.426 71.0183 425.167 114.945L572.292 376.164C597.033 420.091 566.107 475 516.626 475H222.374C172.893 475 141.967 420.091 166.708 376.164L313.833 114.945Z" fill="#A3E5FF" fill-opacity="0.38"/>
<path opacity="0.3" d="M313.833 114.945C338.574 71.0183 400.426 71.0183 425.167 114.945L572.292 376.164C597.033 420.091 566.107 475 516.626 475H222.374C172.893 475 141.967 420.091 166.708 376.164L313.833 114.945Z" fill="#A3E5FF" fill-opacity="0.38"/>
</g>
<path d="M325.938 396.672L331.875 385.25H335.281L327.438 399.516V408H324.438V399.516L316.594 385.25H320.031L325.938 396.672ZM335.969 399.391C335.969 397.734 336.292 396.245 336.938 394.922C337.594 393.599 338.5 392.578 339.656 391.859C340.823 391.141 342.151 390.781 343.641 390.781C345.943 390.781 347.802 391.578 349.219 393.172C350.646 394.766 351.359 396.885 351.359 399.531V399.734C351.359 401.38 351.042 402.859 350.406 404.172C349.781 405.474 348.88 406.49 347.703 407.219C346.536 407.948 345.193 408.312 343.672 408.312C341.38 408.312 339.521 407.516 338.094 405.922C336.677 404.328 335.969 402.219 335.969 399.594V399.391ZM338.875 399.734C338.875 401.609 339.307 403.115 340.172 404.25C341.047 405.385 342.214 405.953 343.672 405.953C345.141 405.953 346.307 405.38 347.172 404.234C348.036 403.078 348.469 401.464 348.469 399.391C348.469 397.536 348.026 396.036 347.141 394.891C346.266 393.734 345.099 393.156 343.641 393.156C342.214 393.156 341.062 393.724 340.188 394.859C339.312 395.995 338.875 397.62 338.875 399.734ZM365.422 406.328C364.297 407.651 362.646 408.312 360.469 408.312C358.667 408.312 357.292 407.792 356.344 406.75C355.406 405.698 354.932 404.146 354.922 402.094V391.094H357.812V402.016C357.812 404.578 358.854 405.859 360.938 405.859C363.146 405.859 364.615 405.036 365.344 403.391V391.094H368.234V408H365.484L365.422 406.328ZM388.812 387.719H381.5V408H378.516V387.719H371.219V385.25H388.812V387.719ZM400.672 406.328C399.547 407.651 397.896 408.312 395.719 408.312C393.917 408.312 392.542 407.792 391.594 406.75C390.656 405.698 390.182 404.146 390.172 402.094V391.094H393.062V402.016C393.062 404.578 394.104 405.859 396.188 405.859C398.396 405.859 399.865 405.036 400.594 403.391V391.094H403.484V408H400.734L400.672 406.328ZM422.203 399.734C422.203 402.318 421.609 404.396 420.422 405.969C419.234 407.531 417.641 408.312 415.641 408.312C413.505 408.312 411.854 407.557 410.688 406.047L410.547 408H407.891V384H410.781V392.953C411.948 391.505 413.557 390.781 415.609 390.781C417.661 390.781 419.271 391.557 420.438 393.109C421.615 394.661 422.203 396.786 422.203 399.484V399.734ZM419.312 399.406C419.312 397.438 418.932 395.917 418.172 394.844C417.411 393.771 416.318 393.234 414.891 393.234C412.984 393.234 411.615 394.12 410.781 395.891V403.203C411.667 404.974 413.047 405.859 414.922 405.859C416.307 405.859 417.385 405.323 418.156 404.25C418.927 403.177 419.312 401.562 419.312 399.406ZM432.875 408.312C430.583 408.312 428.719 407.562 427.281 406.062C425.844 404.552 425.125 402.536 425.125 400.016V399.484C425.125 397.807 425.443 396.312 426.078 395C426.724 393.677 427.62 392.646 428.766 391.906C429.922 391.156 431.172 390.781 432.516 390.781C434.714 390.781 436.422 391.505 437.641 392.953C438.859 394.401 439.469 396.474 439.469 399.172V400.375H428.016C428.057 402.042 428.542 403.391 429.469 404.422C430.406 405.443 431.594 405.953 433.031 405.953C434.052 405.953 434.917 405.745 435.625 405.328C436.333 404.911 436.953 404.359 437.484 403.672L439.25 405.047C437.833 407.224 435.708 408.312 432.875 408.312ZM432.516 393.156C431.349 393.156 430.37 393.583 429.578 394.438C428.786 395.281 428.297 396.469 428.109 398H436.578V397.781C436.495 396.312 436.099 395.177 435.391 394.375C434.682 393.562 433.724 393.156 432.516 393.156Z" fill="white"/>
<circle cx="373" cy="301" r="60" fill="white"/>
<path d="M346 301.5L385.75 278.55V324.45L346 301.5Z" fill="#FFA6A6"/>
<defs>
<linearGradient id="paint0_linear" x1="371.5" y1="70.4431" x2="371.5" y2="579.186" gradientUnits="userSpaceOnUse">
<stop stop-color="#F16A6A"/>
<stop offset="1" stop-color="#8A3887" stop-opacity="0.5"/>
</linearGradient>
<clipPath id="clip0">
<rect width="500" height="500" fill="white" transform="translate(110 8)"/>
</clipPath>
</defs>
</svg>
